<mxfile host="app.diagrams.net" agent="Mozilla/5.0 (X11; Linux x86_64) AppleWebKit/537.36 (KHTML, like Gecko) Chrome/128.0.0.0 Safari/537.36" version="24.7.7">
  <diagram name="Page-1" id="V9hc1iPJeD-20GZIpqgv">
    <mxGraphModel dx="2218" dy="751" grid="1" gridSize="10" guides="1" tooltips="1" connect="1" arrows="1" fold="1" page="1" pageScale="1" pageWidth="850" pageHeight="1100" math="0" shadow="0">
      <root>
        <mxCell id="0" />
        <mxCell id="1" parent="0" />
        <mxCell id="mSlUetE-k-wR4U_zFTwD-5" value="" style="strokeWidth=2;html=1;shape=mxgraph.flowchart.annotation_1;align=left;pointerEvents=1;direction=north;" vertex="1" parent="1">
          <mxGeometry x="125" y="407" width="100" height="25" as="geometry" />
        </mxCell>
        <mxCell id="mSlUetE-k-wR4U_zFTwD-6" value="&lt;font style=&quot;font-size: 16px;&quot;&gt;0&lt;/font&gt;" style="text;html=1;align=center;verticalAlign=middle;resizable=0;points=[];autosize=1;strokeColor=none;fillColor=none;" vertex="1" parent="1">
          <mxGeometry x="110" y="430" width="30" height="30" as="geometry" />
        </mxCell>
        <mxCell id="mSlUetE-k-wR4U_zFTwD-7" value="&lt;font style=&quot;font-size: 16px;&quot;&gt;41.66&lt;/font&gt;" style="text;html=1;align=center;verticalAlign=middle;resizable=0;points=[];autosize=1;strokeColor=none;fillColor=none;" vertex="1" parent="1">
          <mxGeometry x="195" y="430" width="60" height="30" as="geometry" />
        </mxCell>
        <mxCell id="mSlUetE-k-wR4U_zFTwD-8" value="" style="strokeWidth=2;html=1;shape=mxgraph.flowchart.annotation_1;align=left;pointerEvents=1;direction=north;" vertex="1" parent="1">
          <mxGeometry x="225" y="407" width="100" height="25" as="geometry" />
        </mxCell>
        <mxCell id="mSlUetE-k-wR4U_zFTwD-10" value="&lt;font style=&quot;font-size: 16px;&quot;&gt;83.33&lt;/font&gt;" style="text;html=1;align=center;verticalAlign=middle;resizable=0;points=[];autosize=1;strokeColor=none;fillColor=none;" vertex="1" parent="1">
          <mxGeometry x="295" y="430" width="60" height="30" as="geometry" />
        </mxCell>
        <mxCell id="mSlUetE-k-wR4U_zFTwD-11" value="" style="strokeWidth=2;html=1;shape=mxgraph.flowchart.annotation_1;align=left;pointerEvents=1;direction=north;" vertex="1" parent="1">
          <mxGeometry x="325" y="407" width="100" height="25" as="geometry" />
        </mxCell>
        <mxCell id="mSlUetE-k-wR4U_zFTwD-13" value="&lt;font style=&quot;font-size: 16px;&quot;&gt;125&lt;/font&gt;" style="text;html=1;align=center;verticalAlign=middle;resizable=0;points=[];autosize=1;strokeColor=none;fillColor=none;" vertex="1" parent="1">
          <mxGeometry x="400" y="430" width="50" height="30" as="geometry" />
        </mxCell>
        <mxCell id="mSlUetE-k-wR4U_zFTwD-14" value="" style="strokeWidth=2;html=1;shape=mxgraph.flowchart.annotation_1;align=left;pointerEvents=1;direction=north;" vertex="1" parent="1">
          <mxGeometry x="425" y="407" width="100" height="25" as="geometry" />
        </mxCell>
        <mxCell id="mSlUetE-k-wR4U_zFTwD-16" value="&lt;font style=&quot;font-size: 16px;&quot;&gt;166.66&lt;/font&gt;" style="text;html=1;align=center;verticalAlign=middle;resizable=0;points=[];autosize=1;strokeColor=none;fillColor=none;" vertex="1" parent="1">
          <mxGeometry x="490" y="430" width="70" height="30" as="geometry" />
        </mxCell>
        <mxCell id="mSlUetE-k-wR4U_zFTwD-17" value="" style="strokeWidth=2;html=1;shape=mxgraph.flowchart.annotation_1;align=left;pointerEvents=1;direction=north;" vertex="1" parent="1">
          <mxGeometry x="525" y="407" width="100" height="25" as="geometry" />
        </mxCell>
        <mxCell id="mSlUetE-k-wR4U_zFTwD-18" value="&lt;font style=&quot;font-size: 16px;&quot;&gt;208.33&lt;/font&gt;" style="text;html=1;align=center;verticalAlign=middle;resizable=0;points=[];autosize=1;strokeColor=none;fillColor=none;" vertex="1" parent="1">
          <mxGeometry x="590" y="430" width="70" height="30" as="geometry" />
        </mxCell>
        <mxCell id="mSlUetE-k-wR4U_zFTwD-19" value="" style="strokeWidth=2;html=1;shape=mxgraph.flowchart.annotation_1;align=left;pointerEvents=1;direction=north;" vertex="1" parent="1">
          <mxGeometry x="625" y="407" width="100" height="25" as="geometry" />
        </mxCell>
        <mxCell id="mSlUetE-k-wR4U_zFTwD-20" value="&lt;font style=&quot;font-size: 16px;&quot;&gt;250&lt;/font&gt;" style="text;html=1;align=center;verticalAlign=middle;resizable=0;points=[];autosize=1;strokeColor=none;fillColor=none;" vertex="1" parent="1">
          <mxGeometry x="700" y="430" width="50" height="30" as="geometry" />
        </mxCell>
        <mxCell id="mSlUetE-k-wR4U_zFTwD-21" value="&lt;font style=&quot;font-size: 16px;&quot;&gt;Time (ms)&lt;/font&gt;" style="text;html=1;align=center;verticalAlign=middle;resizable=0;points=[];autosize=1;strokeColor=none;fillColor=none;" vertex="1" parent="1">
          <mxGeometry x="-10" y="430" width="90" height="30" as="geometry" />
        </mxCell>
        <mxCell id="mSlUetE-k-wR4U_zFTwD-22" value="" style="verticalLabelPosition=bottom;verticalAlign=top;html=1;shape=mxgraph.basic.frame;dx=10;whiteSpace=wrap;" vertex="1" parent="1">
          <mxGeometry x="90" y="352" width="70" height="50" as="geometry" />
        </mxCell>
        <mxCell id="mSlUetE-k-wR4U_zFTwD-23" value="1" style="text;html=1;align=center;verticalAlign=middle;resizable=0;points=[];autosize=1;strokeColor=none;fillColor=none;fontSize=22;" vertex="1" parent="1">
          <mxGeometry x="105" y="357" width="40" height="40" as="geometry" />
        </mxCell>
        <mxCell id="mSlUetE-k-wR4U_zFTwD-24" value="" style="verticalLabelPosition=bottom;verticalAlign=top;html=1;shape=mxgraph.basic.frame;dx=10;whiteSpace=wrap;" vertex="1" parent="1">
          <mxGeometry x="190" y="352" width="70" height="50" as="geometry" />
        </mxCell>
        <mxCell id="mSlUetE-k-wR4U_zFTwD-25" value="2" style="text;html=1;align=center;verticalAlign=middle;resizable=0;points=[];autosize=1;strokeColor=none;fillColor=none;fontSize=22;" vertex="1" parent="1">
          <mxGeometry x="205" y="357" width="40" height="40" as="geometry" />
        </mxCell>
        <mxCell id="mSlUetE-k-wR4U_zFTwD-29" value="" style="verticalLabelPosition=bottom;verticalAlign=top;html=1;shape=mxgraph.basic.frame;dx=10;whiteSpace=wrap;" vertex="1" parent="1">
          <mxGeometry x="290" y="352" width="70" height="50" as="geometry" />
        </mxCell>
        <mxCell id="mSlUetE-k-wR4U_zFTwD-30" value="3" style="text;html=1;align=center;verticalAlign=middle;resizable=0;points=[];autosize=1;strokeColor=none;fillColor=none;fontSize=22;" vertex="1" parent="1">
          <mxGeometry x="305" y="357" width="40" height="40" as="geometry" />
        </mxCell>
        <mxCell id="mSlUetE-k-wR4U_zFTwD-31" value="" style="verticalLabelPosition=bottom;verticalAlign=top;html=1;shape=mxgraph.basic.frame;dx=10;whiteSpace=wrap;" vertex="1" parent="1">
          <mxGeometry x="390" y="352" width="70" height="50" as="geometry" />
        </mxCell>
        <mxCell id="mSlUetE-k-wR4U_zFTwD-32" value="4" style="text;html=1;align=center;verticalAlign=middle;resizable=0;points=[];autosize=1;strokeColor=none;fillColor=none;fontSize=22;" vertex="1" parent="1">
          <mxGeometry x="405" y="357" width="40" height="40" as="geometry" />
        </mxCell>
        <mxCell id="mSlUetE-k-wR4U_zFTwD-33" value="" style="verticalLabelPosition=bottom;verticalAlign=top;html=1;shape=mxgraph.basic.frame;dx=10;whiteSpace=wrap;" vertex="1" parent="1">
          <mxGeometry x="490" y="352" width="70" height="50" as="geometry" />
        </mxCell>
        <mxCell id="mSlUetE-k-wR4U_zFTwD-34" value="5" style="text;html=1;align=center;verticalAlign=middle;resizable=0;points=[];autosize=1;strokeColor=none;fillColor=none;fontSize=22;" vertex="1" parent="1">
          <mxGeometry x="505" y="357" width="40" height="40" as="geometry" />
        </mxCell>
        <mxCell id="mSlUetE-k-wR4U_zFTwD-35" value="" style="verticalLabelPosition=bottom;verticalAlign=top;html=1;shape=mxgraph.basic.frame;dx=10;whiteSpace=wrap;" vertex="1" parent="1">
          <mxGeometry x="590" y="352" width="70" height="50" as="geometry" />
        </mxCell>
        <mxCell id="mSlUetE-k-wR4U_zFTwD-36" value="6" style="text;html=1;align=center;verticalAlign=middle;resizable=0;points=[];autosize=1;strokeColor=none;fillColor=none;fontSize=22;" vertex="1" parent="1">
          <mxGeometry x="605" y="357" width="40" height="40" as="geometry" />
        </mxCell>
        <mxCell id="mSlUetE-k-wR4U_zFTwD-37" value="" style="verticalLabelPosition=bottom;verticalAlign=top;html=1;shape=mxgraph.basic.frame;dx=10;whiteSpace=wrap;" vertex="1" parent="1">
          <mxGeometry x="690" y="352" width="70" height="50" as="geometry" />
        </mxCell>
        <mxCell id="mSlUetE-k-wR4U_zFTwD-38" value="7" style="text;html=1;align=center;verticalAlign=middle;resizable=0;points=[];autosize=1;strokeColor=none;fillColor=none;fontSize=22;" vertex="1" parent="1">
          <mxGeometry x="705" y="357" width="40" height="40" as="geometry" />
        </mxCell>
        <mxCell id="mSlUetE-k-wR4U_zFTwD-42" value="&lt;font style=&quot;font-size: 16px;&quot;&gt;Published Frames&lt;/font&gt;" style="text;html=1;align=center;verticalAlign=middle;resizable=0;points=[];autosize=1;strokeColor=none;fillColor=none;" vertex="1" parent="1">
          <mxGeometry x="-70" y="362" width="150" height="30" as="geometry" />
        </mxCell>
        <mxCell id="mSlUetE-k-wR4U_zFTwD-43" value="" style="verticalLabelPosition=bottom;verticalAlign=top;html=1;shape=mxgraph.basic.frame;dx=10;whiteSpace=wrap;" vertex="1" parent="1">
          <mxGeometry x="90" y="281" width="70" height="50" as="geometry" />
        </mxCell>
        <mxCell id="mSlUetE-k-wR4U_zFTwD-44" value="1" style="text;html=1;align=center;verticalAlign=middle;resizable=0;points=[];autosize=1;strokeColor=none;fillColor=none;fontSize=22;" vertex="1" parent="1">
          <mxGeometry x="105" y="286" width="40" height="40" as="geometry" />
        </mxCell>
        <mxCell id="mSlUetE-k-wR4U_zFTwD-45" value="" style="verticalLabelPosition=bottom;verticalAlign=top;html=1;shape=mxgraph.basic.frame;dx=10;whiteSpace=wrap;" vertex="1" parent="1">
          <mxGeometry x="172" y="281" width="70" height="50" as="geometry" />
        </mxCell>
        <mxCell id="mSlUetE-k-wR4U_zFTwD-46" value="2" style="text;html=1;align=center;verticalAlign=middle;resizable=0;points=[];autosize=1;strokeColor=none;fillColor=none;fontSize=22;" vertex="1" parent="1">
          <mxGeometry x="187" y="286" width="40" height="40" as="geometry" />
        </mxCell>
        <mxCell id="mSlUetE-k-wR4U_zFTwD-47" value="" style="verticalLabelPosition=bottom;verticalAlign=top;html=1;shape=mxgraph.basic.frame;dx=10;whiteSpace=wrap;" vertex="1" parent="1">
          <mxGeometry x="430" y="281" width="70" height="50" as="geometry" />
        </mxCell>
        <mxCell id="mSlUetE-k-wR4U_zFTwD-48" value="3" style="text;html=1;align=center;verticalAlign=middle;resizable=0;points=[];autosize=1;strokeColor=none;fillColor=none;fontSize=22;" vertex="1" parent="1">
          <mxGeometry x="445" y="286" width="40" height="40" as="geometry" />
        </mxCell>
        <mxCell id="mSlUetE-k-wR4U_zFTwD-49" value="" style="verticalLabelPosition=bottom;verticalAlign=top;html=1;shape=mxgraph.basic.frame;dx=10;whiteSpace=wrap;" vertex="1" parent="1">
          <mxGeometry x="540" y="281" width="70" height="50" as="geometry" />
        </mxCell>
        <mxCell id="mSlUetE-k-wR4U_zFTwD-50" value="4" style="text;html=1;align=center;verticalAlign=middle;resizable=0;points=[];autosize=1;strokeColor=none;fillColor=none;fontSize=22;" vertex="1" parent="1">
          <mxGeometry x="555" y="286" width="40" height="40" as="geometry" />
        </mxCell>
        <mxCell id="mSlUetE-k-wR4U_zFTwD-57" value="&lt;font style=&quot;font-size: 16px;&quot;&gt;Received Frames&lt;/font&gt;" style="text;html=1;align=center;verticalAlign=middle;resizable=0;points=[];autosize=1;strokeColor=none;fillColor=none;" vertex="1" parent="1">
          <mxGeometry x="-70" y="291" width="150" height="30" as="geometry" />
        </mxCell>
        <mxCell id="mSlUetE-k-wR4U_zFTwD-58" style="edgeStyle=orthogonalEdgeStyle;rounded=0;orthogonalLoop=1;jettySize=auto;html=1;exitX=0.5;exitY=0;exitDx=0;exitDy=0;exitPerimeter=0;entryX=0.5;entryY=1;entryDx=0;entryDy=0;entryPerimeter=0;dashed=1;endArrow=none;endFill=0;" edge="1" parent="1" source="mSlUetE-k-wR4U_zFTwD-22" target="mSlUetE-k-wR4U_zFTwD-43">
          <mxGeometry relative="1" as="geometry" />
        </mxCell>
        <mxCell id="mSlUetE-k-wR4U_zFTwD-59" style="rounded=0;orthogonalLoop=1;jettySize=auto;html=1;entryX=0.5;entryY=1;entryDx=0;entryDy=0;entryPerimeter=0;dashed=1;endArrow=none;endFill=0;" edge="1" parent="1" target="mSlUetE-k-wR4U_zFTwD-45">
          <mxGeometry relative="1" as="geometry">
            <mxPoint x="220" y="350" as="sourcePoint" />
          </mxGeometry>
        </mxCell>
        <mxCell id="mSlUetE-k-wR4U_zFTwD-60" style="rounded=0;orthogonalLoop=1;jettySize=auto;html=1;entryX=1;entryY=0.5;entryDx=0;entryDy=0;entryPerimeter=0;dashed=1;endArrow=none;endFill=0;" edge="1" parent="1" target="mSlUetE-k-wR4U_zFTwD-45">
          <mxGeometry relative="1" as="geometry">
            <mxPoint x="320" y="350" as="sourcePoint" />
          </mxGeometry>
        </mxCell>
        <mxCell id="mSlUetE-k-wR4U_zFTwD-61" style="rounded=0;orthogonalLoop=1;jettySize=auto;html=1;entryX=1;entryY=0.5;entryDx=0;entryDy=0;entryPerimeter=0;dashed=1;endArrow=none;endFill=0;exitX=0.414;exitY=-0.02;exitDx=0;exitDy=0;exitPerimeter=0;" edge="1" parent="1" source="mSlUetE-k-wR4U_zFTwD-31" target="mSlUetE-k-wR4U_zFTwD-45">
          <mxGeometry relative="1" as="geometry">
            <mxPoint x="390" y="360" as="sourcePoint" />
          </mxGeometry>
        </mxCell>
        <mxCell id="mSlUetE-k-wR4U_zFTwD-62" style="rounded=0;orthogonalLoop=1;jettySize=auto;html=1;entryX=0.5;entryY=1;entryDx=0;entryDy=0;entryPerimeter=0;dashed=1;endArrow=none;endFill=0;exitX=0.5;exitY=0;exitDx=0;exitDy=0;exitPerimeter=0;" edge="1" parent="1" source="mSlUetE-k-wR4U_zFTwD-33" target="mSlUetE-k-wR4U_zFTwD-47">
          <mxGeometry relative="1" as="geometry" />
        </mxCell>
        <mxCell id="mSlUetE-k-wR4U_zFTwD-63" style="rounded=0;orthogonalLoop=1;jettySize=auto;html=1;entryX=0.5;entryY=1;entryDx=0;entryDy=0;entryPerimeter=0;dashed=1;endArrow=none;endFill=0;exitX=0.5;exitY=0;exitDx=0;exitDy=0;exitPerimeter=0;" edge="1" parent="1" source="mSlUetE-k-wR4U_zFTwD-35" target="mSlUetE-k-wR4U_zFTwD-49">
          <mxGeometry relative="1" as="geometry" />
        </mxCell>
        <mxCell id="mSlUetE-k-wR4U_zFTwD-64" style="rounded=0;orthogonalLoop=1;jettySize=auto;html=1;entryX=1;entryY=0.5;entryDx=0;entryDy=0;entryPerimeter=0;dashed=1;endArrow=none;endFill=0;exitX=0.5;exitY=0;exitDx=0;exitDy=0;exitPerimeter=0;" edge="1" parent="1" source="mSlUetE-k-wR4U_zFTwD-37" target="mSlUetE-k-wR4U_zFTwD-49">
          <mxGeometry relative="1" as="geometry" />
        </mxCell>
      </root>
    </mxGraphModel>
  </diagram>
</mxfile>
